REM DIRINDEX 1\2,1\3,1\4
REM DIRNAME cjc112,folder01,folder02,folder03
TITLE ""
FILE "Track43.mp3" MP3
  TRACK 01 AUDIO
    TITLE "2:cjc112_202"
    INDEX 01 00:00:00
  TRACK 02 AUDIO
    TITLE "0:"
    INDEX 01 00:01:22
  TRACK 03 AUDIO
    TITLE "3:cjc112_203"
    INDEX 01 00:01:64
  TRACK 04 AUDIO
    TITLE "0:"
    INDEX 01 00:05:48
  TRACK 05 AUDIO
    TITLE "4:cjc112_204"
    INDEX 01 00:10:14
  TRACK 06 AUDIO
    TITLE "0:"
    INDEX 01 00:13:71
